<?xml version="1.0" encoding="utf-8"?>
<!-- Generator: Adobe Illustrator 25.4.1, SVG Export Plug-In . SVG Version: 6.00 Build 0)  -->
<svg version="1.1" id="Layer_1" xmlns="http://www.w3.org/2000/svg" xmlns:xlink="http://www.w3.org/1999/xlink" x="0px" y="0px"
	 viewBox="0 0 48 48" style="enable-background:new 0 0 48 48;" xml:space="preserve">
<style type="text/css">
	.st0{fill:#FFB3AB;}
	.st1{fill:none;stroke:#FFB0B4;stroke-width:0.9761;stroke-miterlimit:10;}
</style>
<path class="st0" d="M24.1,4.2c-11,0-20,9-20,20c0,10,7.4,18.3,17,19.8V29.5h-4.9v-5.3h4.9v-3.5c0-5.8,2.8-8.3,7.6-8.3
	c2.3,0,3.5,0.2,4.1,0.2v4.6h-3.3c-2,0-2.8,1.9-2.8,4.1v2.9h6L32,29.5h-5.2V44c9.8-1.3,17.3-9.7,17.3-19.8
	C44.1,13.1,35.2,4.2,24.1,4.2z"/>
<path class="st1" d="M35.9,47.5H12.4C6,47.5,0.7,42.2,0.7,35.8V12.4C0.7,5.9,6,0.7,12.4,0.7h23.4c6.4,0,11.7,5.3,11.7,11.7v23.4
	C47.6,42.2,42.3,47.5,35.9,47.5z"/>
</svg>
