<?xml version="1.0" encoding="utf-8"?>
<!-- Generator: Adobe Illustrator 25.4.1, SVG Export Plug-In . SVG Version: 6.00 Build 0)  -->
<svg version="1.1" id="Layer_1" xmlns="http://www.w3.org/2000/svg" xmlns:xlink="http://www.w3.org/1999/xlink" x="0px" y="0px"
	 viewBox="0 0 48 48" style="enable-background:new 0 0 48 48;" xml:space="preserve">
<style type="text/css">
	.st0{fill:#FFB0B4;}
	.st1{fill:none;stroke:#FFB0B4;stroke-width:0.9761;stroke-miterlimit:10;}
</style>
<g>
	<path class="st0" d="M16.3,6.2c-5.5,0-10,4.5-10,10v16c0,5.5,4.5,10,10,10h16c5.5,0,10-4.5,10-10v-16c0-5.5-4.5-10-10-10H16.3z
		 M36.3,10.2c1.1,0,2,0.9,2,2s-0.9,2-2,2s-2-0.9-2-2S35.2,10.2,36.3,10.2z M24.3,14.2c5.5,0,10,4.5,10,10s-4.5,10-10,10
		s-10-4.5-10-10S18.8,14.2,24.3,14.2z M24.3,18.2c-3.3,0-6,2.7-6,6s2.7,6,6,6s6-2.7,6-6S27.6,18.2,24.3,18.2z"/>
	<path class="st1" d="M36,47.7H12.6C6.2,47.7,0.9,42.4,0.9,36V12.5c0-6.4,5.3-11.7,11.7-11.7H36c6.4,0,11.7,5.3,11.7,11.7V36
		C47.7,42.4,42.5,47.7,36,47.7z"/>
</g>
</svg>
