<?xml version="1.0" encoding="utf-8"?>
<!-- Generator: Adobe Illustrator 25.4.1, SVG Export Plug-In . SVG Version: 6.00 Build 0)  -->
<svg version="1.1" id="Layer_1" xmlns="http://www.w3.org/2000/svg" xmlns:xlink="http://www.w3.org/1999/xlink" x="0px" y="0px"
	 viewBox="0 0 289 295" style="enable-background:new 0 0 289 295;" xml:space="preserve">
<style type="text/css">
	.st0{fill:url(#SVGID_1_);}
	.st1{fill:url(#SVGID_00000018237851193457732110000004660917030972096898_);}
	.st2{fill:#860DCC;}
	.st3{fill:#BF1010;}
	.st4{fill:none;}
</style>
<g>
	
		<linearGradient id="SVGID_1_" gradientUnits="userSpaceOnUse" x1="-74.8456" y1="8.9473" x2="159.5421" y2="8.9473" gradientTransform="matrix(-0.7071 0.7071 -0.7071 -0.7071 158.0512 83.4888)">
		<stop  offset="0" style="stop-color:#000000"/>
		<stop  offset="0.328" style="stop-color:#000000"/>
		<stop  offset="0.524" style="stop-color:#000000"/>
		<stop  offset="0.7298" style="stop-color:#000000"/>
		<stop  offset="1" style="stop-color:#000000"/>
	</linearGradient>
	<path class="st0" d="M25.1,157.5c-2-7.2-3.2-14.6-3.7-22.1l-0.2,0l0-6.5C21.1,99.7,32.4,72.3,53,51.7
		c20.5-20.5,47.8-31.8,76.8-31.8c29,0,56.3,11.3,76.8,31.8c1.5,1.5,3,3.1,4.4,4.7c0.2,0.2,0.4,0.4,0.6,0.7l0.1,0.1
		c0.1,0.1,0.3,0.3,0.4,0.4l0.1,0.1c0.3,0.3,0.6,0.7,0.9,1c0.2,0.3,0.5,0.6,0.7,0.9c0.4,0.4,0.7,0.9,1.1,1.4c0.2,0.3,0.5,0.6,0.7,0.9
		c0.3,0.4,0.6,0.8,1,1.2c0.2,0.2,0.4,0.5,0.5,0.7c0.3,0.4,0.6,0.8,0.9,1.3c0.2,0.2,0.4,0.5,0.5,0.8c0.2,0.2,0.3,0.4,0.5,0.7
		c0.2,0.3,0.4,0.6,0.7,0.9c0.2,0.3,0.4,0.6,0.6,0.9c0.2,0.4,0.5,0.7,0.7,1.1c1.7,2.5,3.2,5.2,4.6,7.8l0,0.1c0.2,0.3,0.4,0.7,0.6,1.1
		c0.2,0.3,0.3,0.6,0.5,0.9c0.9,1.8,1.8,3.6,2.6,5.4c0.1,0.2,0.2,0.5,0.3,0.8c0.1,0.3,0.2,0.6,0.4,0.9c0.2,0.4,0.3,0.7,0.5,1.2
		c0.1,0.3,0.3,0.6,0.4,1l0.1,0.2c0.2,0.5,0.4,0.9,0.5,1.4c0.1,0.3,0.3,0.7,0.4,1c2.2,6.1,3.9,12.5,5,19l0.2,1
		c0.1,0.7,0.2,1.4,0.3,2.2c0,0.3,0.1,0.7,0.1,1.1c0.1,0.8,0.2,1.5,0.3,2.3c0,0.4,0.1,0.9,0.1,1.4c0,0.4,0.1,0.9,0.1,1.3
		c0,0.4,0.1,0.9,0.1,1.4c0,0.5,0.1,1,0.1,1.5l18,0c-1.5-31.5-14.6-61-36.9-83.3C195.4,15,163.6,1.9,129.8,1.9
		C96,1.9,64.1,15,40.2,39C16.2,63,3,94.9,3.1,128.8c0,9.7,1.1,19.3,3.3,28.7L25.1,157.5z"/>
	
		<linearGradient id="SVGID_00000165948350831319284350000014867955535726803615_" gradientUnits="userSpaceOnUse" x1="-43.7053" y1="-6.5446" x2="114.8261" y2="-6.5446" gradientTransform="matrix(-0.7071 0.7071 -0.7071 -0.7071 158.0512 83.4888)">
		<stop  offset="0" style="stop-color:#000000"/>
		<stop  offset="0.328" style="stop-color:#000000"/>
		<stop  offset="0.524" style="stop-color:#000000"/>
		<stop  offset="0.7298" style="stop-color:#000000"/>
		<stop  offset="1" style="stop-color:#000000"/>
	</linearGradient>
	<path style="fill:url(#SVGID_00000165948350831319284350000014867955535726803615_);" d="M129.8,33c-25.5,0-49.5,9.9-67.6,28
		c-0.6,0.6-1.1,1.1-1.7,1.7c-0.3,0.3-0.5,0.6-0.8,0.9l0,0c-0.4,0.4-0.8,0.9-1.2,1.3c-0.3,0.4-0.6,0.7-0.9,1
		c-0.2,0.2-0.3,0.3-0.4,0.5L57,66.7c-0.3,0.3-0.6,0.7-0.8,1c-0.3,0.3-0.5,0.6-0.7,0.9c-0.2,0.2-0.3,0.4-0.5,0.6l-0.3,0.4
		c-0.2,0.2-0.4,0.5-0.6,0.8c-0.7,0.9-1.4,1.9-2.1,2.8c-0.2,0.3-0.4,0.5-0.6,0.8l-0.1,0.1c-0.1,0.2-0.3,0.4-0.4,0.6l-0.1,0.1
		c-0.2,0.3-0.4,0.6-0.6,0.8c-0.5,0.7-1,1.4-1.4,2.2c-0.3,0.5-0.6,1-0.9,1.5l0,0.1c-0.1,0.1-0.2,0.2-0.2,0.4c-0.2,0.4-0.4,0.7-0.6,1
		c-0.2,0.3-0.3,0.6-0.5,0.8c-0.1,0.2-0.3,0.4-0.4,0.7c-0.1,0.2-0.2,0.4-0.3,0.5l-0.1,0.1c-0.1,0.2-0.2,0.4-0.4,0.6
		c-0.2,0.4-0.4,0.7-0.5,1c-0.1,0.3-0.3,0.5-0.4,0.7c-0.4,0.8-0.8,1.5-1.1,2.3c-0.1,0.2-0.2,0.4-0.3,0.6l-0.1,0.1
		c-0.1,0.3-0.2,0.5-0.3,0.7c-0.2,0.4-0.3,0.7-0.5,1.1c-0.1,0.3-0.2,0.5-0.4,0.8c-0.2,0.5-0.4,0.9-0.6,1.4l-0.5,1.3
		c-0.2,0.4-0.3,0.8-0.5,1.2c-0.1,0.2-0.2,0.4-0.2,0.7l-0.1,0.2c-0.1,0.3-0.2,0.7-0.4,1c-0.7,2.1-1.4,4.2-2,6.3
		c-0.1,0.2-0.1,0.5-0.2,0.7c-0.1,0.5-0.3,1-0.4,1.5l-0.6,2.5c-0.3,1.1-0.5,2.3-0.7,3.6c-0.1,0.4-0.1,0.7-0.2,1.1l0,0.1
		c0,0.3-0.1,0.5-0.1,0.8l0,0.1c0,0.2-0.1,0.4-0.1,0.6l0,0.1c-0.1,0.3-0.1,0.7-0.2,1c-0.1,0.4-0.1,0.7-0.2,1.1c0,0.3-0.1,0.5-0.1,0.7
		l0,0.3c0,0.4-0.1,0.8-0.1,1.1c0,0.4-0.1,0.8-0.1,1.2l0,0.1c-0.1,0.7-0.1,1.5-0.2,2.2c0,0.2,0,0.5-0.1,0.7l18.1,0
		C54,104,61.9,86.8,75,73.7c30.2-30.2,79.4-30.2,109.6,0c14.7,14.7,22.8,34.3,22.7,55.1c0,9.8-2,19.6-5.6,28.7l19.2,0
		c2.9-9.3,4.4-18.9,4.5-28.7c0.1-25.6-9.9-49.7-28-67.8C179.3,42.9,155.3,33,129.8,33z"/>
	<path class="st2" d="M70,222c23.9,23.9,55.7,37.1,89.6,37.1c33.8,0,65.6-13.2,89.6-37.1c24-24,37.2-55.9,37.1-89.9
		c0-9.7-1.1-19.3-3.3-28.7l-18.6,0c2,7.2,3.2,14.6,3.7,22.1h0.2l0,6.5c0.1,29.1-11.2,56.6-31.8,77.2c-20.5,20.5-47.8,31.8-76.8,31.8
		c-29,0-56.3-11.3-76.8-31.8c-1.5-1.5-3-3.1-4.4-4.7c-0.2-0.2-0.4-0.4-0.6-0.7c-0.1-0.2-0.3-0.3-0.4-0.5l-0.1-0.1
		c-0.3-0.3-0.6-0.7-0.9-1c-0.2-0.3-0.5-0.6-0.7-0.9c-0.4-0.4-0.7-0.9-1.1-1.4c-0.2-0.3-0.4-0.6-0.7-0.9c-0.3-0.4-0.6-0.8-1-1.2
		c-0.2-0.2-0.4-0.5-0.5-0.7c-0.3-0.4-0.6-0.8-0.9-1.3c-0.2-0.2-0.4-0.5-0.5-0.8c-0.2-0.2-0.3-0.4-0.5-0.7c-0.2-0.3-0.4-0.6-0.7-0.9
		c-0.2-0.3-0.4-0.6-0.6-0.9c-0.2-0.4-0.5-0.7-0.7-1.1c-1.7-2.5-3.2-5.2-4.6-7.8c-0.2-0.4-0.4-0.7-0.6-1.1c-0.2-0.3-0.3-0.6-0.5-0.9
		c-0.9-1.8-1.8-3.6-2.6-5.4c-0.1-0.2-0.2-0.5-0.3-0.8c-0.1-0.3-0.2-0.6-0.4-0.9c-0.2-0.4-0.3-0.8-0.5-1.2c-0.1-0.3-0.3-0.6-0.4-1
		l-0.1-0.2c-0.2-0.5-0.4-0.9-0.5-1.4c-0.1-0.3-0.3-0.7-0.4-1c-2.2-6.1-3.9-12.5-5-19l-0.2-1c-0.1-0.7-0.2-1.5-0.3-2.2
		c0-0.3-0.1-0.7-0.1-1.1c-0.1-0.8-0.2-1.5-0.3-2.3c0-0.4-0.1-0.9-0.1-1.4c0-0.4-0.1-0.8-0.1-1.2l0-0.1c0-0.5-0.1-0.9-0.1-1.4
		c0-0.5-0.1-1-0.1-1.5l-18,0C34.5,170.1,47.6,199.6,70,222z"/>
	<path class="st3" d="M87.6,103.4l-19.2,0c-2.9,9.3-4.4,18.9-4.5,28.7c-0.1,25.6,9.9,49.7,28,67.8c18,18,42,28,67.6,28
		c25.5,0,49.5-9.9,67.6-28c0.6-0.6,1.1-1.1,1.7-1.7c0.3-0.3,0.6-0.6,0.8-0.9l0,0c0.4-0.4,0.8-0.9,1.2-1.3c0.3-0.4,0.6-0.7,0.9-1
		c0.2-0.2,0.3-0.3,0.4-0.5l0.2-0.2c0.3-0.3,0.6-0.7,0.8-1c0.2-0.3,0.5-0.6,0.7-0.9c0.2-0.2,0.3-0.4,0.5-0.6l0.2-0.3
		c0,0,0.1-0.1,0.1-0.1c0.2-0.2,0.4-0.5,0.6-0.7c0.7-0.9,1.4-1.9,2.1-2.8c0.2-0.3,0.4-0.5,0.6-0.8l0.1-0.1c0.1-0.2,0.3-0.4,0.4-0.6
		l0.1-0.1c0.2-0.3,0.4-0.5,0.5-0.8c0.5-0.7,1-1.5,1.4-2.2c0.3-0.5,0.6-1,0.9-1.5l0-0.1c0.1-0.1,0.2-0.2,0.2-0.4
		c0.2-0.4,0.4-0.7,0.6-1c0.2-0.3,0.3-0.6,0.5-0.8c0.1-0.2,0.3-0.4,0.4-0.7c0.1-0.2,0.2-0.4,0.3-0.5l0.1-0.1c0.1-0.2,0.2-0.4,0.4-0.6
		c0.2-0.4,0.4-0.7,0.5-1c0.1-0.3,0.3-0.5,0.4-0.7c0.4-0.8,0.8-1.5,1.1-2.3c0.1-0.2,0.2-0.4,0.3-0.6l0.1-0.2c0.1-0.3,0.2-0.5,0.3-0.7
		c0.2-0.4,0.3-0.7,0.5-1.1c0.1-0.3,0.2-0.5,0.3-0.8c0.2-0.5,0.4-0.9,0.6-1.4l0.5-1.3c0.2-0.4,0.3-0.8,0.5-1.2
		c0.1-0.2,0.2-0.4,0.2-0.7l0.1-0.2c0.1-0.3,0.2-0.7,0.4-1c0.7-2.1,1.4-4.2,2-6.3c0.1-0.2,0.1-0.4,0.2-0.7c0.1-0.5,0.2-0.9,0.4-1.4
		l0.4-1.6c0.1-0.3,0.2-0.7,0.2-1c0.3-1.1,0.5-2.3,0.7-3.6c0.1-0.3,0.1-0.7,0.2-1l0-0.2c0.1-0.3,0.1-0.6,0.1-0.8l0-0.1
		c0-0.2,0.1-0.4,0.1-0.6l0-0.1c0.1-0.3,0.1-0.7,0.2-1c0.1-0.4,0.1-0.7,0.1-1.1c0-0.3,0.1-0.5,0.1-0.7l0-0.3c0-0.4,0.1-0.8,0.1-1.1
		c0.1-0.4,0.1-0.9,0.1-1.3c0.1-0.7,0.1-1.5,0.2-2.2c0-0.2,0-0.5,0.1-0.7h-18.1c-1.5,18.3-9.4,35.5-22.5,48.6
		c-30.2,30.2-79.4,30.2-109.6,0C90,172.5,81.9,152.9,82,132.1C82.1,122.3,84,112.5,87.6,103.4z"/>
</g>
<path id="SVGID_x5F_00000024685255706753763770000000150766272567295883_x5F_" class="st4" d="M21.7,209.9c0,0,51.5,91.3,165.6,69.6
	c0,0,83-11.9,147.6-106.3"/>
<text><textPath  xlink:href="#SVGID_x5F_00000024685255706753763770000000150766272567295883_x5F_" startOffset="0.5371%">
<tspan  style="fill:#FCFCFC; font-family:'MyriadPro-Regular'; font-size:25.8868px;">Texto de este logo</tspan></textPath>
</text>
</svg>
