<?xml version="1.0" encoding="utf-8"?>
<!-- Generator: Adobe Illustrator 25.4.1, SVG Export Plug-In . SVG Version: 6.00 Build 0)  -->
<svg version="1.1" id="Layer_1" xmlns="http://www.w3.org/2000/svg" xmlns:xlink="http://www.w3.org/1999/xlink" x="0px" y="0px"
	 viewBox="0 0 48 48" style="enable-background:new 0 0 48 48;" xml:space="preserve">
<style type="text/css">
	.st0{fill:#FFB0B4;}
	.st1{fill:none;stroke:#FFB0B4;stroke-width:0.9761;stroke-miterlimit:10;}
</style>
<g>
	<path class="st0" d="M44.2,8.2c-1.6,0.9-4.7,2.2-6.5,2.6c-0.1,0-0.1,0-0.2,0c-1.6-1.6-3.9-2.6-6.3-2.6c-5,0-9,4-9,9
		c0,0.3,0,0.7,0,1c-6.7,0-11.8-3.5-15.5-8c-0.4,1-0.6,2.6-0.6,4.1c0,2.8,2.2,5.6,5.6,7.3c-0.6,0.2-1.3,0.3-2,0.3
		c-1.2,0-2.4-0.3-3.5-1.2c0,0,0,0.1,0,0.1c0,3.9,4.2,6.6,7.9,7.3c-0.8,0.4-2.3,0.5-3,0.5c-0.5,0-2.4-0.2-2.9-0.3
		c1,3.2,4.7,5,8.3,5.1c-2.8,2.2-4.7,3-10.3,3H4.2c3.6,2.3,8.1,4,12.7,4c14.9,0,23.3-11.3,23.3-22c0-0.2,0-0.5,0-0.9c0,0,0-0.1,0-0.1
		c0-0.1,0-0.1,0-0.2c0-0.3,0-0.5,0-0.7c1.6-1.1,3-2.6,4-4.2c-1.5,0.6-3,1.1-4.6,1.3C41.3,12.5,43.6,10.1,44.2,8.2z"/>
	<path class="st1" d="M36,47.7H12.5C6.1,47.7,0.8,42.4,0.8,36V12.5c0-6.4,5.3-11.7,11.7-11.7H36c6.4,0,11.7,5.3,11.7,11.7V36
		C47.7,42.4,42.4,47.7,36,47.7z"/>
</g>
</svg>
